<svg width="256" height="256" viewBox="0 0 256 256" xmlns="http://www.w3.org/2000/svg">
  <defs>
    <linearGradient id="iconBg" x1="0%" y1="0%" x2="100%" y2="100%">
      <stop offset="0%" style="stop-color:#667eea;stop-opacity:1" />
      <stop offset="100%" style="stop-color:#764ba2;stop-opacity:1" />
    </linearGradient>
    <linearGradient id="iconAccent" x1="0%" y1="0%" x2="100%" y2="0%">
      <stop offset="0%" style="stop-color:#f093fb;stop-opacity:1" />
      <stop offset="100%" style="stop-color:#f5576c;stop-opacity:1" />
    </linearGradient>
  </defs>
  
  <!-- Background circle -->
  <circle cx="128" cy="128" r="118" fill="url(#iconBg)" stroke="rgba(255,255,255,0.2)" stroke-width="4"/>
  
  <!-- Inner circle for contrast -->
  <circle cx="128" cy="128" r="90" fill="rgba(255,255,255,0.1)"/>
  
  <!-- Main webhook hook shape -->
  <g transform="translate(128,128)">
    <!-- Hook path -->
    <path d="M-40 -30 L20 -30 Q40 -30 40 -10 L40 30 Q40 50 20 50 L-20 50 Q-40 50 -40 30 L-40 10" 
          fill="none" stroke="white" stroke-width="8" stroke-linecap="round"/>
    
    <!-- Arrow pointing right -->
    <g transform="translate(10,-30)">
      <path d="M0 0 L20 -10 M20 -10 L20 0 M20 -10 L10 -10" 
            fill="none" stroke="url(#iconAccent)" stroke-width="6" stroke-linecap="round"/>
    </g>
    
    <!-- Connection dots -->
    <circle cx="-35" cy="20" r="6" fill="url(#iconAccent)"/>
    <circle cx="35" cy="-20" r="6" fill="url(#iconAccent)"/>
    
    <!-- Data flow lines -->
    <g opacity="0.7">
      <path d="M-25 35 Q0 45 25 35" fill="none" stroke="rgba(255,255,255,0.8)" stroke-width="3" stroke-dasharray="6,3"/>
      <path d="M-30 25 Q-10 35 10 25" fill="none" stroke="rgba(255,255,255,0.6)" stroke-width="2" stroke-dasharray="4,2"/>
    </g>
    
    <!-- Small notification indicator -->
    <circle cx="25" cy="-35" r="8" fill="url(#iconAccent)"/>
    <circle cx="25" cy="-35" r="4" fill="white"/>
  </g>
  
  <!-- Subtle outer glow -->
  <circle cx="128" cy="128" r="118" fill="none" stroke="rgba(255,255,255,0.1)" stroke-width="2"/>
</svg>